<svg xmlns="http://www.w3.org/2000/svg" version="1.1" xmlns:xlink="http://www.w3.org/1999/xlink" width="1500" height="1500" viewBox="0 0 1500 1500"><rect width="1500" height="1500" x="0" y="0" id="background" stroke="transparent" fill="#000000"></rect><svg xml:space="preserve" width="1000" height="1000" data-version="2" data-id="lg_vZGVrOFthszZ6ifGSC" viewBox="0 0 559 142" x="250" y="250"><rect width="100%" height="100%" fill="transparent"></rect><rect width="100" height="100" x="-50" y="-50" fill="#7d7d7d" rx="10" ry="10" transform="translate(74.94 71)scale(1.3912)"></rect><path fill="#969696" d="m200.115 77.744-10.18 25.28q-2.38 5.88-2.38 9.7 0 5.25 4.77 7.47h-22.74q1.59 0 4.61-3.18 3.02-3.18 7-12.56l41.5-98.74 41.18 99.22q3.5 8.58 6.76 11.76 3.25 3.18 5.16 3.5h-26.39q3.97-1.91 3.97-5.88 0-3.34-2.54-9.54l-11.13-27.03Zm37.05-6.52-17.34-42.45-17.01 42.45Z"></path><rect width="106.21" height="114.48" x="-53.1" y="-57.24" fill="none" rx="0" ry="0" transform="translate(223.19 63.45)"></rect><path fill="#969696" d="M307.755 17.164v45.16h27.51q5.88 0 7.87-1.75 1.99-1.75 1.99-2.86v15.58q0-.48-.72-1.51-.71-1.04-2.86-2.07-2.15-1.03-6.28-1.03h-27.51v36.73q0 6.2 1.59 9.46 1.59 3.26 3.5 4.45 1.91 1.19 1.91.87h-25.28q0 .32 1.9-.79 1.91-1.12 3.42-4.38 1.51-3.25 1.51-9.61v-79.03q0-6.52-1.51-9.94-1.51-3.41-3.42-4.77-1.9-1.35-1.9-.87h57.55v16.22q-.79-3.82-4.45-6.84-3.65-3.02-10.33-3.02Z"></path><rect width="57.55" height="109.87" x="-28.77" y="-54.93" fill="none" rx="0" ry="0" transform="translate(318.75 65.95)"></rect><path fill="#969696" d="M368.175 120.194q0 .48 1.91-.71 1.91-1.2 3.5-4.46 1.59-3.25 1.59-9.61v-79.82q0-6.36-1.51-9.62-1.51-3.26-3.42-4.37-1.91-1.12-1.91-.8h25.28q0-.32-1.91.8-1.9 1.11-3.49 4.37-1.59 3.26-1.59 9.62v79.82q0 6.36 1.59 9.61 1.59 3.26 3.49 4.38 1.91 1.11 1.91.79z"></path><rect width="25.44" height="109.88" x="-12.72" y="-54.94" fill="none" rx="0" ry="0" transform="translate(381.4 66.06)"></rect><path fill="#969696" d="m437.975 77.744-10.17 25.28q-2.39 5.88-2.39 9.7 0 5.25 4.77 7.47h-22.74q1.59 0 4.62-3.18 3.02-3.18 6.99-12.56l41.5-98.74 41.18 99.22q3.5 8.58 6.76 11.76 3.26 3.18 5.17 3.5h-26.4q3.98-1.91 3.98-5.88 0-3.34-2.55-9.54l-11.13-27.03Zm37.05-6.52-17.33-42.45-17.01 42.45Z"></path><rect width="106.22" height="114.48" x="-53.11" y="-57.24" fill="none" rx="0" ry="0" transform="translate(461.06 63.45)"></rect><path fill="#969696" d="M527.175 120.194q0 .48 1.91-.71 1.91-1.2 3.5-4.46 1.59-3.25 1.59-9.61v-79.82q0-6.36-1.51-9.62-1.51-3.26-3.42-4.37-1.91-1.12-1.91-.8h25.28q0-.32-1.91.8-1.9 1.11-3.49 4.37-1.59 3.26-1.59 9.62v79.82q0 6.36 1.59 9.61 1.59 3.26 3.49 4.38 1.91 1.11 1.91.79z"></path><rect width="25.44" height="109.88" x="-12.72" y="-54.94" fill="none" rx="0" ry="0" transform="translate(540.4 66.06)"></rect><path fill="#000000" d="M96.285 97.134q0-2.27.32-4.55.32-2.27.73-4.49.4-2.23.72-4.54.32-2.32.32-4.68-3 0-5.18.27-2.18.28-4.26.55-2.09.27-4.46.41-2.36.13-5.72-.05-2.45 2.73-5.58 5.81-3.14 3.09-6.68 5.73-3.54 2.63-7.44 4.4-3.91 1.77-7.91 1.77-2.72 0-5.22-.91-2.5-.91-4.4-2.54-1.91-1.63-3-3.95-1.09-2.32-1.09-5.13 0-1.45.5-2.23.5-.77 2.13-.77.82 0 1.46 1.5.63 1.5 1.68 3.36 1.04 1.86 2.68 3.36 1.63 1.5 4.45 1.5 3.45 0 6.76-1.32 3.32-1.31 6.36-3.36 3.04-2.04 5.72-4.58 2.68-2.55 4.86-5-.27-2.27-1.63-3.36-1.37-1.09-2.86-2.18-1.5-1.09-2.68-2.91-1.18-1.81-1.18-5.72 0-5.54 3.36-8.67t9.17-3.13q1.72 0 3.4.36t3.41.86 3.41.86q1.68.37 3.4.37 1.09 0 1.77-.27.68-.28 1.23-.82.54-.55 1.18-1.46.63-.9 1.63-2.18.55-.72 1.68-2.31 1.14-1.59 2.5-3.54 1.36-1.96 2.91-4.14 1.54-2.17 2.9-4.17 1.37-2 2.46-3.54 1.09-1.55 1.54-2.37 1-.81 1.82-1.04.81-.23 1.9-.23 1.09 0 1.64.77.54.78.68 1.87t.09 2.22q-.04 1.14-.04 1.77v.86q0 .6-.05 1.23-.05.64-.05 1.23v.77q-.27.91-.86 2.72-.59 1.82-1.32 4.14-.72 2.31-1.49 4.85-.78 2.55-1.46 4.91-.68 2.36-1.22 4.18-.55 1.81-.73 2.72-.09.46-.27 1.45-.18 1-.37 2.14-.18 1.13-.36 2.13t-.18 1.37q.82.18 1.63.54.82.36.82 1.18 0 .91-.68 1.45-.68.55-1.59 1-.91.46-1.68 1.09-.77.64-.86 1.82-.18 1.09-.64 3.95-.45 2.86-1.04 6.09-.59 3.22-1.09 6.03-.5 2.82-.77 3.91-.09.27-.37 1-.27.73-.63 1.45-.37.73-.73 1.36-.36.64-.54.91-2.18-.45-3.55-1.13-1.36-.68-1.36-2.95m-1.54-34.88q-1.09 0-3.04 1.54-1.96 1.55-3.86 3.59-1.91 2.05-3.37 4.09-1.45 2.04-1.45 3.04.55 0 2.14-.04 1.59-.05 3.36-.09 1.77-.05 3.36-.14 1.59-.09 2.22-.09.37 0 1.14-.18l1.5-.37q.72-.18 1.31-.36.59-.18.68-.27.09 0 .09-.59v-.96q0-.72-.22-2.27-.23-1.54-.73-3.08-.5-1.55-1.27-2.68-.77-1.14-1.86-1.14m-25.52.09q0 1.27.91 2.91.9 1.63 2.27 3.09 1.36 1.45 2.9 2.45 1.55 1 2.91 1 1.27 0 3-1.55 1.72-1.54 3.31-3.58 1.59-2.05 2.68-3.96 1.09-1.9 1.09-2.63 0-1.54-1.04-2.31-1.05-.78-2.46-1.09-1.4-.32-2.95-.32h-2.54q-1.27 0-3.04.22-1.78.23-3.32.87-1.54.63-2.63 1.81-1.09 1.18-1.09 3.09m27.24-4.63q2 2.36 3.73 5.09 1.72 2.72 3.27 5.54l8.08-29.07Z" paint-order="stroke"></path><rect width="80.36" height="73.11" x="-40.18" y="-36.55" fill="none" rx="0" ry="0" transform="translate(78.11 65.16)"></rect></svg></svg>